<svg xmlns="http://www.w3.org/-2000/svg" viewBox="0 0 512 512" fill="none">
  <rect width="512" height="512" rx="128" fill="#1db954" />
  <path d="M372.5 329.8c-3.1 5.1-9.7 6.8-14.8 3.7-40.4-24.7-91.1-30.2-150.9-16.5-5.9 1.4-11.8-2.3-13.1-8.1-1.4-5.9 2.3-11.8 8.1-13.1 66.8-15.3 123.6-9.1 169.1 18.7 5 3.1 6.7 9.7 3.6 14.8zm16.7-36.9c-4-6.4-12.4-8.4-18.9-4.4-46.2 28.5-116.5 36.9-173.1 20-7.3-2.2-15 2-17.2 9.3-2.2 7.3 2 15 9.3 17.2 63.6 19 141.7 9.8 195.4-23.2 6.5-4.1 8.5-12.5 4.5-18.9zm2.1-40.2c-54.8-32.5-144.9-35.5-197.8-19.6-8.8 2.6-18-2.4-20.6-11.2-2.6-8.8 2.4-18 11.2-20.6 60.9-18.3 162-14.9 224.9 22.4 7.9 4.7 10.5 14.9 5.8 22.8-4.7 7.9-14.9 10.5-22.8 5.8z" fill="#000000" />
</svg>
